<?xml version="1.0" encoding="utf-8" standalone="no"?>
<!DOCTYPE svg PUBLIC "-//W3C//DTD SVG 1.1//EN"
  "http://www.w3.org/Graphics/SVG/1.1/DTD/svg11.dtd">
<svg xmlns:xlink="http://www.w3.org/1999/xlink" width="1000.8pt" height="352.8pt" viewBox="0 0 1000.8 352.8" xmlns="http://www.w3.org/2000/svg" version="1.1">
 <metadata>
  <rdf:RDF xmlns:dc="http://purl.org/dc/elements/1.1/" xmlns:cc="http://creativecommons.org/ns#" xmlns:rdf="http://www.w3.org/1999/02/22-rdf-syntax-ns#">
   <cc:Work>
    <dc:type rdf:resource="http://purl.org/dc/dcmitype/StillImage"/>
    <dc:date>2026-09-04T14:43:37.689720</dc:date>
    <dc:format>image/svg+xml</dc:format>
    <dc:creator>
     <cc:Agent>
      <dc:title>Matplotlib v3.11.1, https://matplotlib.org/</dc:title>
     </cc:Agent>
    </dc:creator>
   </cc:Work>
  </rdf:RDF>
 </metadata>
 <defs>
  <style type="text/css">*{stroke-linejoin: round; stroke-linecap: butt}</style>
 </defs>
 <g id="figure_1">
  <g id="patch_1">
   <path d="M 0 352.8 
L 1000.8 352.8 
L 1000.8 0 
L 0 0 
z
" style="fill: #ffffff"/>
  </g>
  <g id="axes_1">
   <g id="patch_2">
    <path d="M 35.010742 327.945703 
L 490.873437 327.945703 
L 490.873437 23.2725 
L 35.010742 23.2725 
z
" style="fill: #ffffff"/>
   </g>
   <g id="patch_3">
    <path d="M 55.731774 327.945703 
L 104.487142 327.945703 
L 104.487142 327.945703 
L 55.731774 327.945703 
z
" clip-path="url(#p3671e960d6)" style="fill: #4682b4; stroke: #ffffff; stroke-linejoin: miter"/>
   </g>
   <g id="patch_4">
    <path d="M 116.675984 327.945703 
L 165.431353 327.945703 
L 165.431353 327.945701 
L 116.675984 327.945701 
z
" clip-path="url(#p3671e960d6)" style="fill: #4682b4; stroke: #ffffff; stroke-linejoin: miter"/>
   </g>
   <g id="patch_5">
    <path d="M 177.620195 327.945703 
L 226.375563 327.945703 
L 226.375563 326.276621 
L 177.620195 326.276621 
z
" clip-path="url(#p3671e960d6)" style="fill: #4682b4; stroke: #ffffff; stroke-linejoin: miter"/>
   </g>
   <g id="patch_6">
    <path d="M 238.564406 327.945703 
L 287.319774 327.945703 
L 287.319774 37.780748 
L 238.564406 37.780748 
z
" clip-path="url(#p3671e960d6)" style="fill: #4682b4; stroke: #ffffff; stroke-linejoin: miter"/>
   </g>
   <g id="patch_7">
    <path d="M 299.508616 327.945703 
L 348.263985 327.945703 
L 348.263985 327.945703 
L 299.508616 327.945703 
z
" clip-path="url(#p3671e960d6)" style="fill: #4682b4; stroke: #ffffff; stroke-linejoin: miter"/>
   </g>
   <g id="patch_8">
    <path d="M 360.452827 327.945703 
L 409.208195 327.945703 
L 409.208195 327.945703 
L 360.452827 327.945703 
z
" clip-path="url(#p3671e960d6)" style="fill: #4682b4; stroke: #ffffff; stroke-linejoin: miter"/>
   </g>
   <g id="patch_9">
    <path d="M 421.397037 327.945703 
L 470.152406 327.945703 
L 470.152406 327.945703 
L 421.397037 327.945703 
z
" clip-path="url(#p3671e960d6)" style="fill: #4682b4; stroke: #ffffff; stroke-linejoin: miter"/>
   </g>
   <g id="matplotlib.axis_1">
    <g id="xtick_1">
     <g id="line2d_1">
      <defs>
       <path id="mf34196c024" d="M 0 0 
L 0 3.5 
" style="stroke: #000000; stroke-width: 0.8"/>
      </defs>
      <g>
       <use xlink:href="#mf34196c024" x="80.109458" y="327.945703" style="stroke: #000000; stroke-width: 0.8"/>
      </g>
     </g>
     <g id="text_1">
      <!-- 5% -->
      <g transform="translate(72.728989 343.06582) scale(0.1 -0.1)">
       <defs>
        <path id="MicrosoftYaHei-1b" d="M 3294 1494 
Q 3294 784 2823 350 
Q 2353 -84 1559 -84 
Q 878 -84 544 119 
L 544 744 
Q 1034 425 1544 425 
Q 2050 425 2361 704 
Q 2672 984 2672 1447 
Q 2672 1909 2348 2167 
Q 2025 2425 1434 2425 
Q 978 2425 613 2384 
L 791 4841 
L 3053 4841 
L 3053 4303 
L 1306 4303 
L 1206 2931 
L 1647 2950 
Q 2416 2950 2855 2567 
Q 3294 2184 3294 1494 
z
" transform="scale(0.015625)"/>
        <path id="MicrosoftYaHei-b" d="M 272 3619 
Q 272 4213 589 4563 
Q 906 4913 1444 4913 
Q 1959 4913 2248 4591 
Q 2538 4269 2538 3694 
Q 2538 3122 2219 2765 
Q 1900 2409 1372 2409 
Q 872 2409 572 2740 
Q 272 3072 272 3619 
z
M 753 3650 
Q 753 3247 928 3028 
Q 1103 2809 1406 2809 
Q 1719 2809 1889 3036 
Q 2059 3263 2059 3675 
Q 2059 4078 1892 4298 
Q 1725 4519 1422 4519 
Q 1113 4519 933 4289 
Q 753 4059 753 3650 
z
M 4647 4841 
L 1538 -31 
L 1016 -31 
L 4125 4841 
L 4647 4841 
z
M 3172 1134 
Q 3172 1728 3489 2083 
Q 3806 2438 4341 2438 
Q 4853 2438 5143 2114 
Q 5434 1791 5434 1203 
Q 5434 634 5112 279 
Q 4791 -75 4272 -75 
Q 3769 -75 3470 261 
Q 3172 597 3172 1134 
z
M 3650 1163 
Q 3650 769 3825 548 
Q 4000 328 4303 328 
Q 4616 328 4786 556 
Q 4956 784 4956 1194 
Q 4956 1600 4786 1815 
Q 4616 2031 4319 2031 
Q 4000 2031 3825 1801 
Q 3650 1572 3650 1163 
z
" transform="scale(0.015625)"/>
       </defs>
       <use xlink:href="#MicrosoftYaHei-1b"/>
       <use xlink:href="#MicrosoftYaHei-b" transform="translate(58.640625 0)"/>
      </g>
     </g>
    </g>
    <g id="xtick_2">
     <g id="line2d_2">
      <g>
       <use xlink:href="#mf34196c024" x="141.053669" y="327.945703" style="stroke: #000000; stroke-width: 0.8"/>
      </g>
     </g>
     <g id="text_2">
      <!-- 10% -->
      <g transform="translate(130.741169 343.06582) scale(0.1 -0.1)">
       <defs>
        <path id="MicrosoftYaHei-17" d="M 1781 0 
L 1781 4141 
Q 1638 3997 1295 3819 
Q 953 3641 663 3569 
L 663 4169 
Q 1047 4275 1484 4508 
Q 1922 4741 2156 4947 
L 2388 4947 
L 2388 0 
L 1781 0 
z
" transform="scale(0.015625)"/>
        <path id="MicrosoftYaHei-16" d="M 284 2325 
Q 284 3606 709 4264 
Q 1134 4922 1941 4922 
Q 3478 4922 3478 2441 
Q 3478 1216 3045 567 
Q 2613 -81 1831 -81 
Q 1094 -81 689 534 
Q 284 1150 284 2325 
z
M 909 2353 
Q 909 425 1888 425 
Q 2850 425 2850 2384 
Q 2850 4413 1906 4413 
Q 909 4413 909 2353 
z
" transform="scale(0.015625)"/>
       </defs>
       <use xlink:href="#MicrosoftYaHei-17"/>
       <use xlink:href="#MicrosoftYaHei-16" transform="translate(58.640625 0)"/>
       <use xlink:href="#MicrosoftYaHei-b" transform="translate(117.28125 0)"/>
      </g>
     </g>
    </g>
    <g id="xtick_3">
     <g id="line2d_3">
      <g>
       <use xlink:href="#mf34196c024" x="201.997879" y="327.945703" style="stroke: #000000; stroke-width: 0.8"/>
      </g>
     </g>
     <g id="text_3">
      <!-- 20% -->
      <g transform="translate(191.685379 343.06582) scale(0.1 -0.1)">
       <defs>
        <path id="MicrosoftYaHei-18" d="M 2666 3572 
Q 2666 3963 2419 4186 
Q 2172 4409 1747 4409 
Q 1447 4409 1140 4256 
Q 834 4103 569 3819 
L 569 4413 
Q 806 4659 1107 4790 
Q 1409 4922 1816 4922 
Q 2472 4922 2872 4570 
Q 3272 4219 3272 3619 
Q 3272 3084 3026 2693 
Q 2781 2303 2188 1894 
Q 1581 1475 1376 1294 
Q 1172 1113 1090 947 
Q 1009 781 1009 544 
L 3416 544 
L 3416 0 
L 372 0 
L 372 241 
Q 372 659 486 951 
Q 600 1244 862 1520 
Q 1125 1797 1681 2184 
Q 2250 2584 2458 2886 
Q 2666 3188 2666 3572 
z
" transform="scale(0.015625)"/>
       </defs>
       <use xlink:href="#MicrosoftYaHei-18"/>
       <use xlink:href="#MicrosoftYaHei-16" transform="translate(58.640625 0)"/>
       <use xlink:href="#MicrosoftYaHei-b" transform="translate(117.28125 0)"/>
      </g>
     </g>
    </g>
    <g id="xtick_4">
     <g id="line2d_4">
      <g>
       <use xlink:href="#mf34196c024" x="262.94209" y="327.945703" style="stroke: #000000; stroke-width: 0.8"/>
      </g>
     </g>
     <g id="text_4">
      <!-- 25% -->
      <g transform="translate(252.62959 343.06582) scale(0.1 -0.1)">
       <use xlink:href="#MicrosoftYaHei-18"/>
       <use xlink:href="#MicrosoftYaHei-1b" transform="translate(58.640625 0)"/>
       <use xlink:href="#MicrosoftYaHei-b" transform="translate(117.28125 0)"/>
      </g>
     </g>
    </g>
    <g id="xtick_5">
     <g id="line2d_5">
      <g>
       <use xlink:href="#mf34196c024" x="323.8863" y="327.945703" style="stroke: #000000; stroke-width: 0.8"/>
      </g>
     </g>
     <g id="text_5">
      <!-- 40% -->
      <g transform="translate(313.5738 343.06582) scale(0.1 -0.1)">
       <defs>
        <path id="MicrosoftYaHei-1a" d="M 2906 4841 
L 2906 1644 
L 3631 1644 
L 3631 1138 
L 2906 1138 
L 2906 0 
L 2313 0 
L 2313 1138 
L 53 1138 
L 53 1616 
Q 656 2294 1265 3178 
Q 1875 4063 2272 4841 
L 2906 4841 
z
M 741 1644 
L 2313 1644 
L 2313 3950 
Q 1988 3366 1616 2817 
Q 1244 2269 741 1644 
z
" transform="scale(0.015625)"/>
       </defs>
       <use xlink:href="#MicrosoftYaHei-1a"/>
       <use xlink:href="#MicrosoftYaHei-16" transform="translate(58.640625 0)"/>
       <use xlink:href="#MicrosoftYaHei-b" transform="translate(117.28125 0)"/>
      </g>
     </g>
    </g>
    <g id="xtick_6">
     <g id="line2d_6">
      <g>
       <use xlink:href="#mf34196c024" x="384.830511" y="327.945703" style="stroke: #000000; stroke-width: 0.8"/>
      </g>
     </g>
     <g id="text_6">
      <!-- 60% -->
      <g transform="translate(374.518011 343.06582) scale(0.1 -0.1)">
       <defs>
        <path id="MicrosoftYaHei-1c" d="M 3181 4219 
Q 2803 4413 2391 4413 
Q 1763 4413 1381 3866 
Q 1000 3319 994 2372 
L 1009 2372 
Q 1353 3038 2106 3038 
Q 2734 3038 3109 2628 
Q 3484 2219 3484 1541 
Q 3484 831 3051 375 
Q 2619 -81 1947 -81 
Q 1209 -81 789 495 
Q 369 1072 369 2131 
Q 369 3413 920 4167 
Q 1472 4922 2372 4922 
Q 2888 4922 3181 4781 
L 3181 4219 
z
M 1031 1584 
Q 1031 1106 1286 765 
Q 1541 425 1963 425 
Q 2363 425 2613 719 
Q 2863 1013 2863 1475 
Q 2863 1975 2627 2253 
Q 2391 2531 1956 2531 
Q 1544 2531 1287 2250 
Q 1031 1969 1031 1584 
z
" transform="scale(0.015625)"/>
       </defs>
       <use xlink:href="#MicrosoftYaHei-1c"/>
       <use xlink:href="#MicrosoftYaHei-16" transform="translate(58.640625 0)"/>
       <use xlink:href="#MicrosoftYaHei-b" transform="translate(117.28125 0)"/>
      </g>
     </g>
    </g>
    <g id="xtick_7">
     <g id="line2d_7">
      <g>
       <use xlink:href="#mf34196c024" x="445.774722" y="327.945703" style="stroke: #000000; stroke-width: 0.8"/>
      </g>
     </g>
     <g id="text_7">
      <!-- 80% -->
      <g transform="translate(435.462222 343.06582) scale(0.1 -0.1)">
       <defs>
        <path id="MicrosoftYaHei-1e" d="M 306 1350 
Q 306 1769 556 2122 
Q 806 2475 1200 2625 
Q 884 2803 700 3081 
Q 516 3359 516 3684 
Q 516 4028 692 4312 
Q 869 4597 1183 4759 
Q 1497 4922 1875 4922 
Q 2256 4922 2572 4761 
Q 2888 4600 3063 4315 
Q 3238 4031 3238 3684 
Q 3238 3366 3058 3086 
Q 2878 2806 2559 2625 
Q 2953 2472 3200 2119 
Q 3447 1766 3447 1350 
Q 3447 938 3250 611 
Q 3053 284 2690 103 
Q 2328 -78 1875 -78 
Q 1425 -78 1065 103 
Q 706 284 506 612 
Q 306 941 306 1350 
z
M 906 1378 
Q 906 947 1172 687 
Q 1438 428 1878 428 
Q 2309 428 2582 692 
Q 2856 956 2856 1378 
Q 2856 1778 2579 2051 
Q 2303 2325 1878 2325 
Q 1456 2325 1181 2058 
Q 906 1791 906 1378 
z
M 1081 3634 
Q 1081 3309 1312 3076 
Q 1544 2844 1878 2844 
Q 2206 2844 2445 3078 
Q 2684 3313 2684 3634 
Q 2684 3963 2454 4191 
Q 2225 4419 1878 4419 
Q 1534 4419 1307 4195 
Q 1081 3972 1081 3634 
z
" transform="scale(0.015625)"/>
       </defs>
       <use xlink:href="#MicrosoftYaHei-1e"/>
       <use xlink:href="#MicrosoftYaHei-16" transform="translate(58.640625 0)"/>
       <use xlink:href="#MicrosoftYaHei-b" transform="translate(117.28125 0)"/>
      </g>
     </g>
    </g>
   </g>
   <g id="matplotlib.axis_2">
    <g id="ytick_1">
     <g id="line2d_8">
      <defs>
       <path id="m1a329e942b" d="M 0 0 
L -3.5 0 
" style="stroke: #000000; stroke-width: 0.8"/>
      </defs>
      <g>
       <use xlink:href="#m1a329e942b" x="35.010742" y="327.945703" style="stroke: #000000; stroke-width: 0.8"/>
      </g>
     </g>
     <g id="text_8">
      <!-- 0 -->
      <g transform="translate(22.14668 332.005762) scale(0.1 -0.1)">
       <use xlink:href="#MicrosoftYaHei-16"/>
      </g>
     </g>
    </g>
    <g id="ytick_2">
     <g id="line2d_9">
      <g>
       <use xlink:href="#m1a329e942b" x="35.010742" y="280.346415" style="stroke: #000000; stroke-width: 0.8"/>
      </g>
     </g>
     <g id="text_9">
      <!-- 1 -->
      <g transform="translate(22.14668 284.406473) scale(0.1 -0.1)">
       <use xlink:href="#MicrosoftYaHei-17"/>
      </g>
     </g>
    </g>
    <g id="ytick_3">
     <g id="line2d_10">
      <g>
       <use xlink:href="#m1a329e942b" x="35.010742" y="232.747126" style="stroke: #000000; stroke-width: 0.8"/>
      </g>
     </g>
     <g id="text_10">
      <!-- 2 -->
      <g transform="translate(22.14668 236.807185) scale(0.1 -0.1)">
       <use xlink:href="#MicrosoftYaHei-18"/>
      </g>
     </g>
    </g>
    <g id="ytick_4">
     <g id="line2d_11">
      <g>
       <use xlink:href="#m1a329e942b" x="35.010742" y="185.147837" style="stroke: #000000; stroke-width: 0.8"/>
      </g>
     </g>
     <g id="text_11">
      <!-- 3 -->
      <g transform="translate(22.14668 189.207896) scale(0.1 -0.1)">
       <defs>
        <path id="MicrosoftYaHei-19" d="M 447 809 
Q 944 425 1569 425 
Q 2069 425 2361 670 
Q 2653 916 2653 1328 
Q 2653 2247 1338 2247 
L 934 2247 
L 934 2753 
L 1319 2753 
Q 2484 2753 2484 3616 
Q 2484 4413 1594 4413 
Q 1084 4413 634 4069 
L 634 4647 
Q 1109 4922 1744 4922 
Q 2363 4922 2738 4598 
Q 3113 4275 3113 3759 
Q 3113 2809 2144 2538 
L 2144 2525 
Q 2669 2469 2973 2155 
Q 3278 1841 3278 1372 
Q 3278 719 2808 319 
Q 2338 -81 1556 -81 
Q 869 -81 447 175 
L 447 809 
z
" transform="scale(0.015625)"/>
       </defs>
       <use xlink:href="#MicrosoftYaHei-19"/>
      </g>
     </g>
    </g>
    <g id="ytick_5">
     <g id="line2d_12">
      <g>
       <use xlink:href="#m1a329e942b" x="35.010742" y="137.548549" style="stroke: #000000; stroke-width: 0.8"/>
      </g>
     </g>
     <g id="text_12">
      <!-- 4 -->
      <g transform="translate(22.14668 141.608607) scale(0.1 -0.1)">
       <use xlink:href="#MicrosoftYaHei-1a"/>
      </g>
     </g>
    </g>
    <g id="ytick_6">
     <g id="line2d_13">
      <g>
       <use xlink:href="#m1a329e942b" x="35.010742" y="89.94926" style="stroke: #000000; stroke-width: 0.8"/>
      </g>
     </g>
     <g id="text_13">
      <!-- 5 -->
      <g transform="translate(22.14668 94.009319) scale(0.1 -0.1)">
       <use xlink:href="#MicrosoftYaHei-1b"/>
      </g>
     </g>
    </g>
    <g id="ytick_7">
     <g id="line2d_14">
      <g>
       <use xlink:href="#m1a329e942b" x="35.010742" y="42.349971" style="stroke: #000000; stroke-width: 0.8"/>
      </g>
     </g>
     <g id="text_14">
      <!-- 6 -->
      <g transform="translate(22.14668 46.41003) scale(0.1 -0.1)">
       <use xlink:href="#MicrosoftYaHei-1c"/>
      </g>
     </g>
    </g>
    <g id="text_15">
     <!-- 终值倍数 -->
     <g transform="translate(15.6125 195.609102) rotate(-90) scale(0.1 -0.1)">
      <defs>
       <path id="MicrosoftYaHei-9c4" d="M 2156 3234 
Q 2944 4253 3356 5366 
L 3825 5209 
Q 3700 4925 3563 4653 
L 5906 4653 
L 5906 4209 
Q 5425 3378 4663 2750 
Q 5381 2259 6350 2097 
Q 6219 1797 6131 1566 
Q 5038 1875 4278 2456 
Q 3447 1878 2331 1503 
Q 2231 1734 2113 1941 
Q 3156 2238 3931 2756 
Q 3434 3228 3119 3847 
Q 2816 3350 2469 2903 
Q 2350 3041 2156 3234 
z
M 888 1528 
Q 1413 1603 2113 1709 
Q 2075 1466 2056 1241 
Q 1344 1141 319 978 
L 219 1434 
Q 594 1828 1163 2794 
Q 506 2753 219 2728 
L 100 3153 
Q 663 3897 1288 5366 
L 1763 5178 
Q 1156 3991 656 3191 
Q 1047 3200 1403 3209 
Q 1638 3625 1900 4122 
L 2369 3916 
Q 1463 2347 888 1528 
z
M 2625 109 
L 2819 547 
Q 3969 234 5675 -297 
L 5444 -791 
Q 3850 -222 2625 109 
z
M 5356 4234 
L 3372 4234 
Q 3750 3513 4303 3028 
Q 4938 3541 5356 4234 
z
M 88 66 
Q 1069 259 2250 547 
Q 2231 203 2231 78 
Q 1375 -109 225 -416 
L 88 66 
z
M 3338 1247 
L 3525 1666 
Q 4469 1384 5413 1047 
L 5206 553 
Q 4275 953 3338 1247 
z
" transform="scale(0.015625)"/>
       <path id="MicrosoftYaHei-49b" d="M 1619 -216 
L 2250 -216 
L 2250 3653 
L 3725 3653 
L 3725 4222 
L 1913 4222 
L 1913 4647 
L 3725 4647 
L 3725 5309 
L 4200 5309 
L 4200 4647 
L 6169 4647 
L 6169 4222 
L 4200 4222 
L 4200 3653 
L 5713 3653 
L 5713 -216 
L 6306 -216 
L 6306 -641 
L 1619 -641 
L 1619 -216 
z
M 69 2247 
Q 906 3497 1369 5278 
L 1831 5141 
Q 1581 4334 1288 3628 
L 1288 -816 
L 831 -816 
L 831 2666 
Q 563 2166 263 1734 
Q 175 1997 69 2247 
z
M 2713 -216 
L 5250 -216 
L 5250 353 
L 2713 353 
L 2713 -216 
z
M 5250 3241 
L 2713 3241 
L 2713 2678 
L 5250 2678 
L 5250 3241 
z
M 2713 1716 
L 5250 1716 
L 5250 2278 
L 2713 2278 
L 2713 1716 
z
M 2713 753 
L 5250 753 
L 5250 1316 
L 2713 1316 
L 2713 753 
z
" transform="scale(0.015625)"/>
       <path id="MicrosoftYaHei-495" d="M 2338 1709 
L 5750 1709 
L 5750 -816 
L 5275 -816 
L 5275 -409 
L 2813 -409 
L 2813 -816 
L 2338 -816 
L 2338 1709 
z
M 56 2278 
Q 919 3516 1394 5303 
L 1875 5166 
Q 1619 4331 1300 3603 
L 1300 -822 
L 838 -822 
L 838 2669 
Q 566 2178 263 1753 
Q 169 2016 56 2278 
z
M 5275 1278 
L 2813 1278 
L 2813 9 
L 5275 9 
L 5275 1278 
z
M 1775 2766 
L 4850 2766 
L 4506 2959 
Q 4875 3447 5125 3953 
L 5588 3728 
Q 5297 3253 4947 2766 
L 6313 2766 
L 6313 2328 
L 1775 2328 
L 1775 2766 
z
M 2006 4409 
L 3984 4409 
Q 3769 4778 3506 5141 
L 3925 5384 
Q 4206 5009 4444 4622 
L 4072 4409 
L 6094 4409 
L 6094 3972 
L 2006 3972 
L 2006 4409 
z
M 2525 3716 
L 2925 3959 
Q 3288 3459 3556 3041 
L 3131 2772 
Q 2825 3309 2525 3716 
z
" transform="scale(0.015625)"/>
       <path id="MicrosoftYaHei-783" d="M 4175 5303 
L 4675 5228 
Q 4544 4622 4369 4097 
L 6281 4097 
L 6281 3672 
L 5888 3672 
Q 5731 1834 5088 753 
Q 5594 66 6375 -372 
Q 6175 -647 6038 -866 
Q 5275 -372 4769 309 
Q 4194 -403 3400 -928 
Q 3263 -747 3044 -534 
Q 3919 41 4463 772 
Q 3956 1647 3794 2791 
Q 3663 2559 3519 2359 
Q 3394 2541 3206 2759 
Q 3931 3803 4175 5303 
z
M 150 1697 
L 1100 1697 
Q 1238 1934 1369 2184 
L 1819 2041 
Q 1719 1866 1619 1697 
L 3150 1697 
L 3150 1291 
Q 2913 678 2431 216 
Q 2775 53 3131 -109 
L 2856 -541 
Q 2469 -322 2050 -103 
Q 1344 -609 269 -903 
Q 169 -703 56 -466 
Q 969 -259 1600 128 
Q 1063 403 475 691 
Q 675 978 863 1284 
L 150 1284 
L 150 1697 
z
M 219 3847 
L 1656 3847 
L 1656 5247 
L 2119 5247 
L 2119 3847 
L 3319 3847 
L 3319 3434 
L 2119 3434 
L 2119 3053 
L 2306 3266 
Q 2888 2841 3281 2516 
L 2981 2166 
Q 2638 2491 2119 2897 
L 2119 2184 
L 1656 2184 
L 1656 3059 
Q 1088 2466 331 2016 
Q 213 2197 63 2397 
Q 850 2822 1506 3434 
L 219 3434 
L 219 3847 
z
M 5388 3672 
L 4219 3672 
Q 4188 3591 4150 3516 
Q 4263 2191 4775 1247 
Q 5275 2159 5388 3672 
z
M 1088 834 
Q 1531 634 2000 416 
Q 2431 784 2675 1284 
L 1375 1284 
Q 1231 1053 1088 834 
z
M 3038 5091 
L 3425 4834 
Q 3081 4384 2738 4003 
Q 2594 4128 2400 4266 
Q 2725 4647 3038 5091 
z
M 381 4816 
L 738 5059 
Q 1019 4716 1319 4322 
L 931 4047 
Q 656 4453 381 4816 
z
" transform="scale(0.015625)"/>
      </defs>
      <use xlink:href="#MicrosoftYaHei-9c4"/>
      <use xlink:href="#MicrosoftYaHei-49b" transform="translate(100 0)"/>
      <use xlink:href="#MicrosoftYaHei-495" transform="translate(200 0)"/>
      <use xlink:href="#MicrosoftYaHei-783" transform="translate(300 0)"/>
     </g>
    </g>
    <g id="text_16">
     <!-- 1e20 -->
     <g transform="translate(35.010742 20.2725) scale(0.1 -0.1)">
      <defs>
       <path id="MicrosoftYaHei-4b" d="M 3363 1572 
L 944 1572 
Q 959 1019 1246 717 
Q 1534 416 2050 416 
Q 2631 416 3116 788 
L 3116 241 
Q 2659 -81 1906 -81 
Q 1156 -81 736 394 
Q 316 869 316 1713 
Q 316 2506 777 3022 
Q 1238 3538 1922 3538 
Q 2600 3538 2981 3102 
Q 3363 2666 3363 1881 
L 3363 1572 
z
M 2750 2063 
Q 2747 2531 2528 2787 
Q 2309 3044 1913 3044 
Q 1547 3044 1280 2772 
Q 1013 2500 944 2063 
L 2750 2063 
z
" transform="scale(0.015625)"/>
      </defs>
      <use xlink:href="#MicrosoftYaHei-17"/>
      <use xlink:href="#MicrosoftYaHei-4b" transform="translate(58.640625 0)"/>
      <use xlink:href="#MicrosoftYaHei-18" transform="translate(115.375 0)"/>
      <use xlink:href="#MicrosoftYaHei-16" transform="translate(174.015625 0)"/>
     </g>
    </g>
   </g>
   <g id="line2d_15">
    <path d="M 262.94209 327.945703 
L 262.94209 23.2725 
" clip-path="url(#p3671e960d6)" style="fill: none; stroke-dasharray: 5.55,2.4; stroke-dashoffset: 0; stroke: #ff0000; stroke-width: 1.5"/>
   </g>
   <g id="patch_10">
    <path d="M 35.010742 327.945703 
L 35.010742 23.2725 
" style="fill: none; stroke: #000000; stroke-width: 0.8; stroke-linejoin: miter; stroke-linecap: square"/>
   </g>
   <g id="patch_11">
    <path d="M 490.873437 327.945703 
L 490.873437 23.2725 
" style="fill: none; stroke: #000000; stroke-width: 0.8; stroke-linejoin: miter; stroke-linecap: square"/>
   </g>
   <g id="patch_12">
    <path d="M 35.010742 327.945703 
L 490.873437 327.945703 
" style="fill: none; stroke: #000000; stroke-width: 0.8; stroke-linejoin: miter; stroke-linecap: square"/>
   </g>
   <g id="patch_13">
    <path d="M 35.010742 23.2725 
L 490.873437 23.2725 
" style="fill: none; stroke: #000000; stroke-width: 0.8; stroke-linejoin: miter; stroke-linecap: square"/>
   </g>
   <g id="text_17">
    <!-- 不同投注比例下的中位数终值 -->
    <g transform="translate(184.94209 17.2725) scale(0.12 -0.12)">
     <defs>
      <path id="MicrosoftYaHei-409" d="M 225 4772 
L 6181 4772 
L 6181 4284 
L 3881 4284 
Q 3581 3766 3081 3053 
L 3444 3053 
L 3444 -866 
L 2906 -866 
L 2906 2859 
Q 1838 1541 388 609 
Q 231 834 38 1059 
Q 2006 2291 3213 4284 
L 225 4284 
L 225 4772 
z
M 4069 2859 
Q 5238 2147 6325 1409 
L 5969 916 
Q 4681 1872 3763 2434 
L 4069 2859 
z
" transform="scale(0.015625)"/>
      <path id="MicrosoftYaHei-563" d="M 1013 -772 
L 531 -772 
L 531 4959 
L 5856 4959 
L 5856 -47 
Q 5856 -741 5125 -741 
Q 4669 -741 4088 -716 
Q 4056 -497 4000 -216 
Q 4619 -272 5025 -272 
Q 5375 -272 5375 78 
L 5375 4497 
L 1013 4497 
L 1013 -772 
z
M 1875 2566 
L 4506 2566 
L 4506 597 
L 2338 597 
L 2338 272 
L 1875 272 
L 1875 2566 
z
M 4044 2116 
L 2338 2116 
L 2338 1047 
L 4044 1047 
L 4044 2116 
z
M 1363 3734 
L 5025 3734 
L 5025 3284 
L 1363 3284 
L 1363 3734 
z
" transform="scale(0.015625)"/>
      <path id="MicrosoftYaHei-70e" d="M 2450 1997 
L 2450 2434 
L 5663 2434 
L 5663 2003 
Q 5238 1013 4466 338 
Q 5213 -131 6344 -316 
Q 6169 -547 6031 -791 
Q 4863 -534 4081 38 
Q 3238 -553 2056 -841 
Q 1919 -584 1781 -403 
Q 2916 -166 3713 350 
Q 3025 1009 2731 1997 
L 2450 1997 
z
M 94 1966 
Q 531 2084 1006 2231 
L 1006 3609 
L 175 3609 
L 175 4047 
L 1006 4047 
L 1006 5259 
L 1475 5259 
L 1475 4047 
L 2231 4047 
L 2231 3609 
L 1475 3609 
L 1475 2378 
Q 1797 2481 2138 2597 
Q 2131 2397 2150 2109 
Q 1809 2003 1475 1894 
L 1475 -72 
Q 1475 -753 869 -753 
L 263 -753 
Q 238 -534 181 -222 
Q 531 -259 750 -259 
Q 1006 -259 1006 41 
L 1006 1741 
Q 578 1597 156 1447 
L 94 1966 
z
M 5619 3366 
L 6319 3366 
Q 6256 3141 6213 2909 
L 5550 2909 
Q 4831 2909 4831 3597 
L 4831 4578 
L 3444 4578 
L 3444 4347 
Q 3450 3141 2488 2547 
Q 2331 2753 2150 2928 
Q 2975 3378 2975 4347 
L 2975 5016 
L 5300 5016 
L 5300 3666 
Q 5300 3366 5619 3366 
z
M 5144 1997 
L 3184 1997 
Q 3447 1166 4084 619 
Q 4769 1178 5144 1997 
z
" transform="scale(0.015625)"/>
      <path id="MicrosoftYaHei-868" d="M 1625 16 
L 3725 16 
L 3725 1791 
L 2100 1791 
L 2100 2266 
L 3725 2266 
L 3725 3778 
L 1925 3778 
L 1925 4253 
L 3919 4253 
Q 3625 4719 3319 5103 
L 3731 5366 
Q 4150 4878 4394 4503 
L 4003 4253 
L 6100 4253 
L 6100 3778 
L 4250 3778 
L 4250 2266 
L 5875 2266 
L 5875 1791 
L 4250 1791 
L 4250 16 
L 6275 16 
L 6275 -459 
L 1625 -459 
L 1625 16 
z
M 956 1816 
Q 1213 1703 1450 1609 
Q 1106 509 731 -791 
L 194 -603 
Q 588 466 956 1816 
z
M 631 5234 
Q 1238 4778 1713 4322 
Q 1500 4109 1338 3941 
Q 1000 4297 313 4891 
L 631 5234 
z
M 394 3616 
Q 844 3303 1500 2766 
Q 1269 2503 1131 2359 
Q 475 2959 81 3259 
L 394 3616 
z
" transform="scale(0.015625)"/>
      <path id="MicrosoftYaHei-841" d="M 3225 5316 
L 3744 5316 
L 3744 2672 
Q 4959 3550 5744 4509 
L 6188 4178 
Q 5175 3063 3744 2056 
L 3744 247 
Q 3744 -166 4106 -166 
L 5175 -166 
Q 5588 -166 5650 203 
Q 5725 678 5763 1247 
Q 6025 1147 6300 1066 
Q 6244 484 6150 22 
Q 6019 -622 5319 -622 
L 3944 -622 
Q 3225 -622 3225 159 
L 3225 5316 
z
M 1063 5153 
L 1063 3278 
L 2825 3278 
L 2825 2809 
L 1063 2809 
L 1063 153 
Q 1713 428 2763 928 
Q 2763 634 2788 366 
Q 1869 -3 1231 -328 
Q 956 -472 725 -672 
L 344 -184 
Q 544 -34 544 272 
L 544 5153 
L 1063 5153 
z
" transform="scale(0.015625)"/>
      <path id="MicrosoftYaHei-486" d="M 2381 1841 
L 2631 2191 
Q 2916 1997 3247 1738 
Q 3488 2378 3581 3128 
L 2703 3128 
Q 2350 1984 1831 1291 
Q 1700 1491 1531 1678 
Q 2238 2694 2578 4522 
L 1900 4522 
L 1900 4959 
L 4319 4959 
L 4319 4522 
L 3044 4522 
Q 2947 4009 2828 3559 
L 4044 3559 
L 4044 3128 
Q 3788 666 2038 -822 
Q 1900 -634 1694 -416 
Q 2578 297 3063 1303 
Q 2753 1556 2381 1841 
z
M 88 2291 
Q 894 3659 1281 5322 
L 1744 5234 
Q 1578 4534 1325 3853 
L 1325 -809 
L 900 -809 
L 900 2847 
Q 625 2275 288 1716 
Q 213 1966 88 2291 
z
M 5575 5303 
L 6031 5303 
L 6031 84 
Q 6031 -391 5881 -566 
Q 5750 -728 5356 -734 
Q 5088 -741 4488 -722 
Q 4463 -466 4400 -203 
Q 4881 -253 5188 -253 
Q 5431 -259 5500 -166 
Q 5575 -84 5575 234 
L 5575 5303 
z
M 4913 653 
L 4469 653 
L 4469 4322 
L 4913 4322 
L 4913 653 
z
" transform="scale(0.015625)"/>
      <path id="MicrosoftYaHei-408" d="M 163 4803 
L 6238 4803 
L 6238 4291 
L 3200 4291 
L 3200 2928 
L 3488 3328 
Q 4919 2484 5888 1809 
L 5519 1303 
Q 4550 2047 3200 2872 
L 3200 -797 
L 2631 -797 
L 2631 4291 
L 163 4291 
L 163 4803 
z
" transform="scale(0.015625)"/>
      <path id="MicrosoftYaHei-919" d="M 356 4284 
L 988 4284 
Q 1219 4853 1369 5322 
L 1894 5172 
Q 1697 4694 1513 4284 
L 2763 4284 
L 2763 -691 
L 2263 -691 
L 2263 -203 
L 856 -203 
L 856 -734 
L 356 -734 
L 356 4284 
z
M 2856 3003 
Q 3444 3934 3850 5322 
L 4375 5191 
Q 4216 4719 4050 4303 
L 6063 4303 
Q 5988 1091 5938 259 
Q 5894 -722 4906 -722 
Q 4338 -722 3750 -684 
Q 3713 -372 3650 -128 
L 3669 -128 
Q 4294 -216 4813 -216 
Q 5381 -216 5425 384 
Q 5494 1316 5525 3834 
L 3850 3834 
Q 3578 3231 3288 2772 
Q 3119 2891 2856 3003 
z
M 856 266 
L 2263 266 
L 2263 1847 
L 856 1847 
L 856 266 
z
M 2263 3816 
L 856 3816 
L 856 2297 
L 2263 2297 
L 2263 3816 
z
M 3406 2578 
L 3788 2859 
Q 4481 2041 4894 1441 
L 4431 1116 
Q 3988 1841 3406 2578 
z
" transform="scale(0.015625)"/>
      <path id="MicrosoftYaHei-418" d="M 525 3972 
L 2931 3972 
L 2931 5334 
L 3469 5334 
L 3469 3972 
L 5900 3972 
L 5900 1122 
L 5388 1122 
L 5388 1459 
L 3469 1459 
L 3469 -866 
L 2931 -866 
L 2931 1459 
L 1038 1459 
L 1038 1122 
L 525 1122 
L 525 3972 
z
M 5388 3509 
L 3469 3509 
L 3469 1922 
L 5388 1922 
L 5388 3509 
z
M 1038 1922 
L 2931 1922 
L 2931 3509 
L 1038 3509 
L 1038 1922 
z
" transform="scale(0.015625)"/>
      <path id="MicrosoftYaHei-479" d="M 1788 -59 
L 4228 -59 
Q 4678 1144 5269 3372 
L 5831 3203 
Q 5453 2044 4756 -59 
L 6319 -59 
L 6319 -522 
L 1788 -522 
L 1788 -59 
z
M 81 2291 
Q 975 3641 1431 5322 
L 1963 5191 
Q 1703 4397 1406 3709 
L 1406 -853 
L 938 -853 
L 938 2731 
Q 644 2181 319 1716 
Q 231 1953 81 2291 
z
M 1919 4191 
L 4122 4191 
Q 3844 4659 3506 5059 
L 3931 5353 
Q 4206 5034 4613 4497 
L 4150 4191 
L 6206 4191 
L 6206 3728 
L 1919 3728 
L 1919 4191 
z
M 2769 3309 
Q 3181 2184 3669 584 
L 3150 434 
Q 2725 1966 2294 3147 
L 2769 3309 
z
" transform="scale(0.015625)"/>
     </defs>
     <use xlink:href="#MicrosoftYaHei-409"/>
     <use xlink:href="#MicrosoftYaHei-563" transform="translate(100 0)"/>
     <use xlink:href="#MicrosoftYaHei-70e" transform="translate(200 0)"/>
     <use xlink:href="#MicrosoftYaHei-868" transform="translate(300 0)"/>
     <use xlink:href="#MicrosoftYaHei-841" transform="translate(400 0)"/>
     <use xlink:href="#MicrosoftYaHei-486" transform="translate(500 0)"/>
     <use xlink:href="#MicrosoftYaHei-408" transform="translate(600 0)"/>
     <use xlink:href="#MicrosoftYaHei-919" transform="translate(700 0)"/>
     <use xlink:href="#MicrosoftYaHei-418" transform="translate(800 0)"/>
     <use xlink:href="#MicrosoftYaHei-479" transform="translate(900 0)"/>
     <use xlink:href="#MicrosoftYaHei-783" transform="translate(1000 0)"/>
     <use xlink:href="#MicrosoftYaHei-9c4" transform="translate(1100 0)"/>
     <use xlink:href="#MicrosoftYaHei-49b" transform="translate(1200 0)"/>
    </g>
   </g>
   <g id="legend_1">
    <g id="patch_14">
     <path d="M 401.335938 46.936367 
L 483.873438 46.936367 
Q 485.873438 46.936367 485.873438 44.936367 
L 485.873438 30.2725 
Q 485.873438 28.2725 483.873438 28.2725 
L 401.335938 28.2725 
Q 399.335938 28.2725 399.335938 30.2725 
L 399.335938 44.936367 
Q 399.335938 46.936367 401.335938 46.936367 
z
" style="fill: #ffffff; opacity: 0.8; stroke: #cccccc; stroke-linejoin: miter"/>
    </g>
    <g id="line2d_16">
     <path d="M 403.335938 36.892617 
L 413.335938 36.892617 
L 423.335938 36.892617 
" style="fill: none; stroke-dasharray: 5.55,2.4; stroke-dashoffset: 0; stroke: #ff0000; stroke-width: 1.5"/>
    </g>
    <g id="text_18">
     <!-- Kelly=25% -->
     <g transform="translate(431.335938 40.392617) scale(0.1 -0.1)">
      <defs>
       <path id="MicrosoftYaHei-31" d="M 4069 0 
L 3213 0 
L 1394 2200 
Q 1300 2316 1266 2381 
L 1250 2381 
L 1250 0 
L 625 0 
L 625 4841 
L 1250 4841 
L 1250 2563 
L 1266 2563 
Q 1319 2647 1394 2741 
L 3150 4841 
L 3922 4841 
L 1891 2519 
L 4069 0 
z
" transform="scale(0.015625)"/>
       <path id="MicrosoftYaHei-52" d="M 544 0 
L 544 5116 
L 1156 5116 
L 1156 0 
L 544 0 
z
" transform="scale(0.015625)"/>
       <path id="MicrosoftYaHei-5f" d="M 3359 3456 
L 1791 -522 
Q 1353 -1628 556 -1628 
Q 328 -1628 166 -1578 
L 166 -1041 
Q 344 -1109 509 -1109 
Q 925 -1109 1131 -622 
L 1397 6 
L 41 3456 
L 719 3456 
L 1622 859 
L 1697 575 
L 1713 575 
Q 1731 672 1788 853 
L 2731 3456 
L 3359 3456 
z
" transform="scale(0.015625)"/>
       <path id="MicrosoftYaHei-23" d="M 3972 2497 
L 788 2497 
L 788 2969 
L 3972 2969 
L 3972 2497 
z
M 3972 1053 
L 788 1053 
L 788 1525 
L 3972 1525 
L 3972 1053 
z
" transform="scale(0.015625)"/>
      </defs>
      <use xlink:href="#MicrosoftYaHei-31"/>
      <use xlink:href="#MicrosoftYaHei-4b" transform="translate(62.0625 0)"/>
      <use xlink:href="#MicrosoftYaHei-52" transform="translate(118.796875 0)"/>
      <use xlink:href="#MicrosoftYaHei-52" transform="translate(145.40625 0)"/>
      <use xlink:href="#MicrosoftYaHei-5f" transform="translate(172.015625 0)"/>
      <use xlink:href="#MicrosoftYaHei-23" transform="translate(224.953125 0)"/>
      <use xlink:href="#MicrosoftYaHei-18" transform="translate(299.125 0)"/>
      <use xlink:href="#MicrosoftYaHei-1b" transform="translate(357.765625 0)"/>
      <use xlink:href="#MicrosoftYaHei-b" transform="translate(416.40625 0)"/>
     </g>
    </g>
   </g>
  </g>
  <g id="axes_2">
   <g id="patch_15">
    <path d="M 537.737305 327.945703 
L 993.6 327.945703 
L 993.6 23.2725 
L 537.737305 23.2725 
z
" style="fill: #ffffff"/>
   </g>
   <g id="patch_16">
    <path d="M 558.458336 327.945703 
L 607.213705 327.945703 
L 607.213705 327.945703 
L 558.458336 327.945703 
z
" clip-path="url(#pc90beb0ee0)" style="fill: #ff7f50; stroke: #ffffff; stroke-linejoin: miter"/>
   </g>
   <g id="patch_17">
    <path d="M 619.402547 327.945703 
L 668.157915 327.945703 
L 668.157915 327.945703 
L 619.402547 327.945703 
z
" clip-path="url(#pc90beb0ee0)" style="fill: #ff7f50; stroke: #ffffff; stroke-linejoin: miter"/>
   </g>
   <g id="patch_18">
    <path d="M 680.346757 327.945703 
L 729.102126 327.945703 
L 729.102126 327.945703 
L 680.346757 327.945703 
z
" clip-path="url(#pc90beb0ee0)" style="fill: #ff7f50; stroke: #ffffff; stroke-linejoin: miter"/>
   </g>
   <g id="patch_19">
    <path d="M 741.290968 327.945703 
L 790.046337 327.945703 
L 790.046337 327.945703 
L 741.290968 327.945703 
z
" clip-path="url(#pc90beb0ee0)" style="fill: #ff7f50; stroke: #ffffff; stroke-linejoin: miter"/>
   </g>
   <g id="patch_20">
    <path d="M 802.235179 327.945703 
L 850.990547 327.945703 
L 850.990547 272.814362 
L 802.235179 272.814362 
z
" clip-path="url(#pc90beb0ee0)" style="fill: #ff7f50; stroke: #ffffff; stroke-linejoin: miter"/>
   </g>
   <g id="patch_21">
    <path d="M 863.179389 327.945703 
L 911.934758 327.945703 
L 911.934758 37.780748 
L 863.179389 37.780748 
z
" clip-path="url(#pc90beb0ee0)" style="fill: #ff7f50; stroke: #ffffff; stroke-linejoin: miter"/>
   </g>
   <g id="patch_22">
    <path d="M 924.1236 327.945703 
L 972.878968 327.945703 
L 972.878968 37.780748 
L 924.1236 37.780748 
z
" clip-path="url(#pc90beb0ee0)" style="fill: #ff7f50; stroke: #ffffff; stroke-linejoin: miter"/>
   </g>
   <g id="matplotlib.axis_3">
    <g id="xtick_8">
     <g id="line2d_17">
      <g>
       <use xlink:href="#mf34196c024" x="582.836021" y="327.945703" style="stroke: #000000; stroke-width: 0.8"/>
      </g>
     </g>
     <g id="text_19">
      <!-- 5% -->
      <g transform="translate(575.455552 343.06582) scale(0.1 -0.1)">
       <use xlink:href="#MicrosoftYaHei-1b"/>
       <use xlink:href="#MicrosoftYaHei-b" transform="translate(58.640625 0)"/>
      </g>
     </g>
    </g>
    <g id="xtick_9">
     <g id="line2d_18">
      <g>
       <use xlink:href="#mf34196c024" x="643.780231" y="327.945703" style="stroke: #000000; stroke-width: 0.8"/>
      </g>
     </g>
     <g id="text_20">
      <!-- 10% -->
      <g transform="translate(633.467731 343.06582) scale(0.1 -0.1)">
       <use xlink:href="#MicrosoftYaHei-17"/>
       <use xlink:href="#MicrosoftYaHei-16" transform="translate(58.640625 0)"/>
       <use xlink:href="#MicrosoftYaHei-b" transform="translate(117.28125 0)"/>
      </g>
     </g>
    </g>
    <g id="xtick_10">
     <g id="line2d_19">
      <g>
       <use xlink:href="#mf34196c024" x="704.724442" y="327.945703" style="stroke: #000000; stroke-width: 0.8"/>
      </g>
     </g>
     <g id="text_21">
      <!-- 20% -->
      <g transform="translate(694.411942 343.06582) scale(0.1 -0.1)">
       <use xlink:href="#MicrosoftYaHei-18"/>
       <use xlink:href="#MicrosoftYaHei-16" transform="translate(58.640625 0)"/>
       <use xlink:href="#MicrosoftYaHei-b" transform="translate(117.28125 0)"/>
      </g>
     </g>
    </g>
    <g id="xtick_11">
     <g id="line2d_20">
      <g>
       <use xlink:href="#mf34196c024" x="765.668652" y="327.945703" style="stroke: #000000; stroke-width: 0.8"/>
      </g>
     </g>
     <g id="text_22">
      <!-- 25% -->
      <g transform="translate(755.356152 343.06582) scale(0.1 -0.1)">
       <use xlink:href="#MicrosoftYaHei-18"/>
       <use xlink:href="#MicrosoftYaHei-1b" transform="translate(58.640625 0)"/>
       <use xlink:href="#MicrosoftYaHei-b" transform="translate(117.28125 0)"/>
      </g>
     </g>
    </g>
    <g id="xtick_12">
     <g id="line2d_21">
      <g>
       <use xlink:href="#mf34196c024" x="826.612863" y="327.945703" style="stroke: #000000; stroke-width: 0.8"/>
      </g>
     </g>
     <g id="text_23">
      <!-- 40% -->
      <g transform="translate(816.300363 343.06582) scale(0.1 -0.1)">
       <use xlink:href="#MicrosoftYaHei-1a"/>
       <use xlink:href="#MicrosoftYaHei-16" transform="translate(58.640625 0)"/>
       <use xlink:href="#MicrosoftYaHei-b" transform="translate(117.28125 0)"/>
      </g>
     </g>
    </g>
    <g id="xtick_13">
     <g id="line2d_22">
      <g>
       <use xlink:href="#mf34196c024" x="887.557074" y="327.945703" style="stroke: #000000; stroke-width: 0.8"/>
      </g>
     </g>
     <g id="text_24">
      <!-- 60% -->
      <g transform="translate(877.244574 343.06582) scale(0.1 -0.1)">
       <use xlink:href="#MicrosoftYaHei-1c"/>
       <use xlink:href="#MicrosoftYaHei-16" transform="translate(58.640625 0)"/>
       <use xlink:href="#MicrosoftYaHei-b" transform="translate(117.28125 0)"/>
      </g>
     </g>
    </g>
    <g id="xtick_14">
     <g id="line2d_23">
      <g>
       <use xlink:href="#mf34196c024" x="948.501284" y="327.945703" style="stroke: #000000; stroke-width: 0.8"/>
      </g>
     </g>
     <g id="text_25">
      <!-- 80% -->
      <g transform="translate(938.188784 343.06582) scale(0.1 -0.1)">
       <use xlink:href="#MicrosoftYaHei-1e"/>
       <use xlink:href="#MicrosoftYaHei-16" transform="translate(58.640625 0)"/>
       <use xlink:href="#MicrosoftYaHei-b" transform="translate(117.28125 0)"/>
      </g>
     </g>
    </g>
   </g>
   <g id="matplotlib.axis_4">
    <g id="ytick_8">
     <g id="line2d_24">
      <g>
       <use xlink:href="#m1a329e942b" x="537.737305" y="327.945703" style="stroke: #000000; stroke-width: 0.8"/>
      </g>
     </g>
     <g id="text_26">
      <!-- 0.0 -->
      <g transform="translate(516.601367 332.005762) scale(0.1 -0.1)">
       <defs>
        <path id="MicrosoftYaHei-14" d="M 372 322 
Q 372 491 487 606 
Q 603 722 775 722 
Q 950 722 1065 605 
Q 1181 488 1181 322 
Q 1181 159 1065 42 
Q 950 -75 772 -75 
Q 600 -75 486 42 
Q 372 159 372 322 
z
" transform="scale(0.015625)"/>
       </defs>
       <use xlink:href="#MicrosoftYaHei-16"/>
       <use xlink:href="#MicrosoftYaHei-14" transform="translate(58.640625 0)"/>
       <use xlink:href="#MicrosoftYaHei-16" transform="translate(82.71875 0)"/>
      </g>
     </g>
    </g>
    <g id="ytick_9">
     <g id="line2d_25">
      <g>
       <use xlink:href="#m1a329e942b" x="537.737305" y="269.912712" style="stroke: #000000; stroke-width: 0.8"/>
      </g>
     </g>
     <g id="text_27">
      <!-- 0.2 -->
      <g transform="translate(516.601367 273.972771) scale(0.1 -0.1)">
       <use xlink:href="#MicrosoftYaHei-16"/>
       <use xlink:href="#MicrosoftYaHei-14" transform="translate(58.640625 0)"/>
       <use xlink:href="#MicrosoftYaHei-18" transform="translate(82.71875 0)"/>
      </g>
     </g>
    </g>
    <g id="ytick_10">
     <g id="line2d_26">
      <g>
       <use xlink:href="#m1a329e942b" x="537.737305" y="211.879721" style="stroke: #000000; stroke-width: 0.8"/>
      </g>
     </g>
     <g id="text_28">
      <!-- 0.4 -->
      <g transform="translate(516.601367 215.93978) scale(0.1 -0.1)">
       <use xlink:href="#MicrosoftYaHei-16"/>
       <use xlink:href="#MicrosoftYaHei-14" transform="translate(58.640625 0)"/>
       <use xlink:href="#MicrosoftYaHei-1a" transform="translate(82.71875 0)"/>
      </g>
     </g>
    </g>
    <g id="ytick_11">
     <g id="line2d_27">
      <g>
       <use xlink:href="#m1a329e942b" x="537.737305" y="153.84673" style="stroke: #000000; stroke-width: 0.8"/>
      </g>
     </g>
     <g id="text_29">
      <!-- 0.6 -->
      <g transform="translate(516.601367 157.906789) scale(0.1 -0.1)">
       <use xlink:href="#MicrosoftYaHei-16"/>
       <use xlink:href="#MicrosoftYaHei-14" transform="translate(58.640625 0)"/>
       <use xlink:href="#MicrosoftYaHei-1c" transform="translate(82.71875 0)"/>
      </g>
     </g>
    </g>
    <g id="ytick_12">
     <g id="line2d_28">
      <g>
       <use xlink:href="#m1a329e942b" x="537.737305" y="95.813739" style="stroke: #000000; stroke-width: 0.8"/>
      </g>
     </g>
     <g id="text_30">
      <!-- 0.8 -->
      <g transform="translate(516.601367 99.873797) scale(0.1 -0.1)">
       <use xlink:href="#MicrosoftYaHei-16"/>
       <use xlink:href="#MicrosoftYaHei-14" transform="translate(58.640625 0)"/>
       <use xlink:href="#MicrosoftYaHei-1e" transform="translate(82.71875 0)"/>
      </g>
     </g>
    </g>
    <g id="ytick_13">
     <g id="line2d_29">
      <g>
       <use xlink:href="#m1a329e942b" x="537.737305" y="37.780748" style="stroke: #000000; stroke-width: 0.8"/>
      </g>
     </g>
     <g id="text_31">
      <!-- 1.0 -->
      <g transform="translate(516.601367 41.840806) scale(0.1 -0.1)">
       <use xlink:href="#MicrosoftYaHei-17"/>
       <use xlink:href="#MicrosoftYaHei-14" transform="translate(58.640625 0)"/>
       <use xlink:href="#MicrosoftYaHei-16" transform="translate(82.71875 0)"/>
      </g>
     </g>
    </g>
    <g id="text_32">
     <!-- 爆仓概率 -->
     <g transform="translate(510.067188 195.609102) rotate(-90) scale(0.1 -0.1)">
      <defs>
       <path id="MicrosoftYaHei-8c7" d="M 6375 672 
Q 6225 484 6088 278 
Q 5538 581 5122 972 
Q 4844 788 4531 609 
L 4294 916 
Q 4597 1072 4863 1241 
Q 4678 1450 4528 1684 
L 3409 1684 
Q 3244 1456 3047 1244 
Q 3344 1072 3613 897 
L 3363 584 
Q 3094 788 2788 981 
Q 2350 572 1800 241 
Q 1675 416 1513 584 
Q 2381 1050 2919 1684 
L 1738 1684 
L 1738 2034 
L 2975 2034 
L 2975 2516 
L 1925 2516 
L 1925 2866 
L 2975 2866 
L 2975 3334 
L 2656 3334 
L 2656 3178 
L 2256 3178 
L 2256 5053 
L 5713 5053 
L 5713 3178 
L 5313 3178 
L 5313 3334 
L 4994 3334 
L 4994 2866 
L 6050 2866 
L 6050 2516 
L 4994 2516 
L 4994 2034 
L 6238 2034 
L 6238 1684 
L 4956 1684 
Q 5497 1028 6375 672 
z
M 856 5266 
L 1269 5266 
L 1269 3016 
Q 1269 2363 1213 1794 
Q 1641 1475 1988 1172 
L 1688 822 
Q 1425 1088 1153 1328 
Q 953 -9 400 -809 
Q 306 -603 125 -334 
Q 856 734 856 3072 
L 856 5266 
z
M 3794 1484 
L 4194 1484 
L 4194 -84 
Q 4194 -784 3600 -784 
Q 3319 -784 2881 -772 
Q 2850 -578 2788 -353 
Q 3163 -397 3444 -397 
Q 3794 -397 3794 -41 
L 3794 1484 
z
M 2656 3672 
L 5313 3672 
L 5313 4034 
L 2656 4034 
L 2656 3672 
z
M 5313 4716 
L 2656 4716 
L 2656 4359 
L 5313 4359 
L 5313 4716 
z
M 5969 -59 
L 5769 -453 
Q 5056 -134 4306 103 
L 4475 478 
Q 5231 228 5969 -59 
z
M 1919 -9 
Q 2631 178 3550 509 
Q 3600 291 3656 128 
Q 2894 -97 2113 -397 
L 1919 -9 
z
M 131 4097 
L 519 4134 
Q 613 3397 663 2578 
L 275 2547 
Q 238 3397 131 4097 
z
M 3375 2034 
L 4594 2034 
L 4594 2516 
L 3375 2516 
L 3375 2034 
z
M 3375 2866 
L 4594 2866 
L 4594 3334 
L 3375 3334 
L 3375 2866 
z
M 1375 2809 
Q 1588 3597 1663 4203 
L 2050 4109 
Q 1938 3484 1725 2691 
L 1375 2809 
z
" transform="scale(0.015625)"/>
       <path id="MicrosoftYaHei-453" d="M 3681 5278 
L 3538 5097 
Q 4569 3766 6313 3059 
Q 6163 2859 5981 2559 
Q 4281 3384 3206 4734 
Q 2269 3534 381 2484 
Q 250 2734 63 2978 
Q 2081 3941 2988 5278 
L 3681 5278 
z
M 1306 2991 
L 4931 2991 
Q 4894 2134 4850 1653 
Q 4806 1097 4588 891 
Q 4363 678 3813 684 
Q 3456 684 3063 697 
Q 3025 934 2963 1222 
Q 3488 1166 3756 1166 
Q 4088 1166 4213 1272 
Q 4331 1372 4363 1684 
Q 4400 2047 4419 2528 
L 1800 2528 
L 1800 341 
Q 1800 -209 2375 -209 
L 4538 -209 
Q 5219 -209 5300 241 
Q 5381 609 5438 1147 
Q 5663 1047 5925 966 
Q 5850 466 5744 28 
Q 5569 -684 4631 -684 
L 2231 -684 
Q 1306 -684 1306 228 
L 1306 2991 
z
" transform="scale(0.015625)"/>
       <path id="MicrosoftYaHei-822" d="M 2900 1359 
L 3263 1559 
Q 3519 1141 3869 466 
L 3494 222 
Q 3416 384 3344 528 
Q 3041 325 2544 -22 
Q 2419 -103 2219 -322 
L 1869 91 
Q 2063 303 2063 659 
L 2063 4966 
L 3606 4966 
L 3606 1803 
L 3206 1803 
L 3206 2009 
L 2469 2009 
L 2469 484 
Q 2781 669 3147 916 
Q 3009 1178 2900 1359 
z
M 4313 2584 
L 4850 2584 
Q 4950 3300 4950 4566 
L 3900 4566 
L 3900 4966 
L 6100 4966 
L 6100 4566 
L 5363 4566 
Q 5369 3344 5272 2584 
L 6138 2584 
L 6138 2184 
L 5209 2184 
Q 5156 1897 5075 1628 
L 5281 1628 
L 5281 59 
Q 5281 -228 5500 -228 
L 5619 -228 
Q 5781 -228 5844 22 
Q 5913 284 5900 853 
Q 6131 747 6319 691 
Q 6306 141 6213 -216 
Q 6081 -653 5744 -653 
L 5369 -653 
Q 4869 -653 4869 -3 
L 4869 1072 
Q 4366 -41 3281 -841 
Q 3150 -647 2963 -484 
Q 4425 534 4778 2184 
L 3894 2184 
L 4063 4253 
L 4450 4253 
L 4313 2584 
z
M 75 1384 
Q 569 2369 856 3616 
L 169 3616 
L 169 4003 
L 913 4003 
L 913 5322 
L 1325 5322 
L 1325 4003 
L 1913 4003 
L 1913 3616 
L 1325 3616 
L 1325 2775 
L 1494 2922 
Q 1819 2578 2019 2309 
L 1725 2059 
Q 1534 2341 1325 2588 
L 1325 -822 
L 913 -822 
L 913 2691 
Q 622 1531 256 841 
Q 175 1103 75 1384 
z
M 2469 2397 
L 3206 2397 
L 3206 3297 
L 2469 3297 
L 2469 2397 
z
M 3206 4578 
L 2469 4578 
L 2469 3684 
L 3206 3684 
L 3206 4578 
z
" transform="scale(0.015625)"/>
       <path id="MicrosoftYaHei-8e4" d="M 2525 2009 
Q 2622 2016 3928 2081 
Q 3772 2300 3625 2491 
L 3963 2703 
Q 4413 2203 4794 1653 
L 4394 1403 
Q 4284 1569 4178 1725 
Q 2991 1659 2213 1597 
Q 2075 1584 1881 1541 
L 1725 1966 
Q 1913 2028 2006 2084 
Q 2534 2441 3050 2913 
Q 2597 2894 2275 2866 
Q 2144 2847 1988 2809 
L 1800 3191 
Q 1956 3247 2088 3366 
Q 2509 3722 2875 4228 
L 231 4228 
L 231 4666 
L 3031 4666 
Q 2878 4944 2744 5153 
L 3194 5372 
Q 3438 5000 3616 4666 
L 6175 4666 
L 6175 4228 
L 3053 4228 
L 3350 4072 
Q 2844 3553 2494 3247 
Q 2850 3256 3425 3269 
Q 3675 3519 3925 3797 
L 4356 3547 
Q 3363 2603 2525 2009 
z
M 144 991 
L 2994 991 
L 2994 1541 
L 3488 1541 
L 3488 991 
L 6275 991 
L 6275 553 
L 3488 553 
L 3488 -853 
L 2994 -853 
L 2994 553 
L 144 553 
L 144 991 
z
M 1719 2672 
L 1944 2303 
Q 1200 1866 425 1409 
L 163 1828 
Q 813 2134 1719 2672 
z
M 4856 2678 
Q 5750 2172 6250 1816 
L 5975 1409 
Q 5331 1909 4600 2341 
L 4856 2678 
z
M 5994 3591 
Q 5519 3178 4963 2809 
L 4644 3141 
Q 5244 3534 5638 3928 
L 5994 3591 
z
M 363 3634 
L 681 3941 
Q 1200 3528 1588 3159 
L 1238 2816 
Q 875 3197 363 3634 
z
" transform="scale(0.015625)"/>
      </defs>
      <use xlink:href="#MicrosoftYaHei-8c7"/>
      <use xlink:href="#MicrosoftYaHei-453" transform="translate(100 0)"/>
      <use xlink:href="#MicrosoftYaHei-822" transform="translate(200 0)"/>
      <use xlink:href="#MicrosoftYaHei-8e4" transform="translate(300 0)"/>
     </g>
    </g>
   </g>
   <g id="patch_23">
    <path d="M 537.737305 327.945703 
L 537.737305 23.2725 
" style="fill: none; stroke: #000000; stroke-width: 0.8; stroke-linejoin: miter; stroke-linecap: square"/>
   </g>
   <g id="patch_24">
    <path d="M 993.6 327.945703 
L 993.6 23.2725 
" style="fill: none; stroke: #000000; stroke-width: 0.8; stroke-linejoin: miter; stroke-linecap: square"/>
   </g>
   <g id="patch_25">
    <path d="M 537.737305 327.945703 
L 993.6 327.945703 
" style="fill: none; stroke: #000000; stroke-width: 0.8; stroke-linejoin: miter; stroke-linecap: square"/>
   </g>
   <g id="patch_26">
    <path d="M 537.737305 23.2725 
L 993.6 23.2725 
" style="fill: none; stroke: #000000; stroke-width: 0.8; stroke-linejoin: miter; stroke-linecap: square"/>
   </g>
   <g id="text_33">
    <!-- 不同投注比例下的爆仓率 -->
    <g transform="translate(699.668652 17.2725) scale(0.12 -0.12)">
     <use xlink:href="#MicrosoftYaHei-409"/>
     <use xlink:href="#MicrosoftYaHei-563" transform="translate(100 0)"/>
     <use xlink:href="#MicrosoftYaHei-70e" transform="translate(200 0)"/>
     <use xlink:href="#MicrosoftYaHei-868" transform="translate(300 0)"/>
     <use xlink:href="#MicrosoftYaHei-841" transform="translate(400 0)"/>
     <use xlink:href="#MicrosoftYaHei-486" transform="translate(500 0)"/>
     <use xlink:href="#MicrosoftYaHei-408" transform="translate(600 0)"/>
     <use xlink:href="#MicrosoftYaHei-919" transform="translate(700 0)"/>
     <use xlink:href="#MicrosoftYaHei-8c7" transform="translate(800 0)"/>
     <use xlink:href="#MicrosoftYaHei-453" transform="translate(900 0)"/>
     <use xlink:href="#MicrosoftYaHei-8e4" transform="translate(1000 0)"/>
    </g>
   </g>
  </g>
 </g>
 <defs>
  <clipPath id="p3671e960d6">
   <rect x="35.010742" y="23.2725" width="455.862695" height="304.673203"/>
  </clipPath>
  <clipPath id="pc90beb0ee0">
   <rect x="537.737305" y="23.2725" width="455.862695" height="304.673203"/>
  </clipPath>
 </defs>
</svg>
